<?xml version="1.0" encoding="utf-8"?>
<!-- Generator: Adobe Illustrator 23.0.0, SVG Export Plug-In . SVG Version: 6.00 Build 0)  -->
<svg version="1.1" id="Layer_1" xmlns="http://www.w3.org/2000/svg" xmlns:xlink="http://www.w3.org/1999/xlink" x="0px" y="0px"
	 viewBox="0 0 253 103" style="enable-background:new 0 0 253 103;" xml:space="preserve">
<g>
	<path d="M248,85.87c-1.41,4.15-4.38,5.56-8.64,5.55c-41.94-0.07-176.52-0.04-218.46-0.05c-1,0-1.76,0.16-2.53,0.98
		c-1.85,1.99-8.81,1.99-10.82,0.15c-1.16-1.06-1.5-2.4-1.5-3.94c0.02-21.04,0.01-42.08,0.01-63.13c0-3.6-0.01-7.19,0-10.79
		c0.01-2.94,1.87-4.81,4.81-4.86c1.36-0.02,2.75-0.18,4.07,0.05c1.19,0.2,2.51,0.6,3.4,1.35c0.83,0.7,1.55,0.95,2.55,0.95
		c41.94-0.01,176.52,0.02,218.46-0.05c4.26-0.01,7.23,1.41,8.64,5.55C248,40.38,248,63.13,248,85.87z M46.94,86.96
		c0.88,0,1.41,0,1.93,0c32.75,0,158.14,0,190.89,0c3.14,0,3.86-0.72,3.86-3.86c0-20.85,0-41.69,0-62.54c0-3.35-0.66-4.02-4-4.02
		c-28.23,0-149.11,0-177.34,0c-0.51,0-1.02,0-1.88,0c0.56,0.61,0.86,0.96,1.19,1.29c1.95,1.96,3.87,3.97,5.89,5.86
		c1.21,1.13,1.49,2.3,1.13,3.91c-3.51,15.61-8.9,30.59-15.16,45.28c-0.15,0.36-0.3,0.73-0.52,1.04c-0.66,0.93-1.52,1.35-2.64,0.88
		c-1.16-0.49-1.56-1.41-1.3-2.6c0.13-0.56,0.4-1.09,0.62-1.63c5.87-13.8,10.95-27.86,14.33-42.5c0.22-0.98,0.09-1.61-0.63-2.31
		c-2.55-2.46-5.17-4.88-7.49-7.55c-1.57-1.81-3.32-1.82-5.51-1.55c0.4,12.03-0.73,23.88-2.89,35.65
		c-2.15,11.72-5.2,23.21-9.07,34.65c0.73,0,1.23-0.07,1.69,0.01c1.42,0.26,2.24-0.3,2.76-1.65c0.48-1.26,1.16-2.45,1.78-3.66
		c0.81-1.58,2.04-2.09,3.29-1.41c1.16,0.62,1.39,1.87,0.64,3.44C48.06,84.69,47.57,85.68,46.94,86.96z M37.99,72.87
		c0.13-0.34,0.28-0.65,0.36-0.97c1.11-4.52,2.28-9.02,3.29-13.55c0.7-3.16,1.48-6.35,1.7-9.57c0.29-4.3,0.08-8.64,0.07-12.97
		c-0.01-3.19-1.79-5.12-5-5.18c-4.52-0.09-9.04-0.08-13.55,0c-3.17,0.06-5,2-5.07,5.17c-0.03,1.6-0.01,3.21-0.01,4.81
		c0,8.94-0.01,17.88,0.01,26.82c0.01,3.27,1.65,5.32,4.64,5.41C28.93,72.97,33.45,72.87,37.99,72.87z M19.94,16.55
		c-0.63,1.86-1.35,2.43-2.68,2.26c-1.25-0.17-1.85-1.07-1.86-2.83c0-0.53,0-1.05,0-1.67c-1.7,0-3.27,0-4.89,0
		c0,25.01,0,49.9,0,74.88c1.65,0,3.22,0,4.89,0c0-0.69,0-1.27,0-1.84c0-20.02,0-40.03,0-60.05c0-0.53-0.04-1.08,0.05-1.6
		c0.21-1.16,1.01-1.84,2.12-1.84c1.17,0,2,0.68,2.17,1.94c0.07,0.5,0.07,1,0.12,1.69c2.35-1.39,4.77-1.4,7.21-1.37
		c2.91,0.03,5.83,0.06,8.74-0.01c3.62-0.08,7.08,0.22,9.91,3.12c0.18-4.03,0.2-7.99,0.14-11.94c0-0.25-0.61-0.72-0.94-0.72
		C36.63,16.54,28.32,16.55,19.94,16.55z M36.77,77.53c-5.79-0.69-11.49,0.88-16.88-1.29c0,3.58,0,7.1,0,10.72
		c4.44,0,8.75,0.01,13.07-0.03c0.32,0,0.81-0.36,0.91-0.66C34.87,83.39,35.8,80.49,36.77,77.53z"/>
</g>
</svg>
